# xmcd
#
# Track frame offsets:
#	150
#	11063
#	20961
#	33963
#	44236
#	57324
#	68732
#	79093
#	91427
#	102955
#	115699
#	128567
#	138042
#	149903
#	162185
#
# Disc length: 2321 seconds
# Revision: 0
# Processed by: cddbd v1.5.2PL0 Copyright (c) Steve Scherf et al.
# Submitted via: dBpowerAMP V12.0
#
DISCID=d2090f0f
DTITLE=Little Richard - Rocks
DYEAR=1957
DGENRE=Rock
TTITLE0=Tutti Frutti
TTITLE1=Ain't Nothing Happening
TTITLE2=Every Hour
TTITLE3=Get Rich Quick
TTITLE4=I Brought It All on Myself
TTITLE5=Please Have Mercy on Me
TTITLE6=Taxi Blues
TTITLE7=Thinkin' Bout My Mother
TTITLE8=Why Did You Leave Me?
TTITLE9=Ain't That Good News
TTITLE10=Little Richard's Boogie
TTITLE11=Baby
TTITLE12=I'm Just a Lonely Guy
TTITLE13=True Fine Mama
TTITLE14=Kansas City/Hey Hey Hey
EXTD=
EXTT0=
EXTT1=
EXTT2=
EXTT3=
EXTT4=
EXTT5=
EXTT6=
EXTT7=
EXTT8=
EXTT9=
EXTT10=
EXTT11=
EXTT12=
EXTT13=
EXTT14=
PLAYORDER=
